HIERARCHY
ROOT hip
{
  OFFSET 0 0 0
  CHANNELS 6 Xposition Yposition Zposition Zrotation Yrotation Xrotation
  JOINT abdomen
  {
    OFFSET 0 20.6881 -0.73152
    CHANNELS 3 Zrotation Xrotation Yrotation
    JOINT chest
    {
      OFFSET 0 11.7043 -0.48768
      CHANNELS 3 Zrotation Xrotation Yrotation
      JOINT neck
      {
        OFFSET 0 22.1894 -2.19456
        CHANNELS 3 Zrotation Xrotation Yrotation
        JOINT head
        {
          OFFSET -0.24384 7.07133 1.2192
          CHANNELS 3 Zrotation Xrotation Yrotation
          JOINT leftEye
          {
            OFFSET 4.14528 8.04674 8.04672
            CHANNELS 3 Zrotation Xrotation Yrotation
            End Site
            {
              OFFSET 1 0 0
            }
          }
          JOINT rightEye
          {
            OFFSET -3.6576 8.04674 8.04672
            CHANNELS 3 Zrotation Xrotation Yrotation
            End Site
            {
              OFFSET 1 0 0
            }
          }
        }
      }
      JOINT rCollar
      {
        OFFSET -2.68224 19.2634 -4.8768
        CHANNELS 3 Zrotation Xrotation Yrotation
        JOINT rShldr
        {
          OFFSET -8.77824 -1.95073 1.46304
          CHANNELS 3 Zrotation Xrotation Yrotation
          JOINT rForeArm
          {
            OFFSET -28.1742 -1.7115 0.48768
            CHANNELS 3 Zrotation Xrotation Yrotation
            JOINT rHand
            {
              OFFSET -22.5879 0.773209 7.07136
              CHANNELS 3 Zrotation Xrotation Yrotation
              JOINT rThumb1
              {
                OFFSET -1.2192 -0.487915 3.41376
                CHANNELS 3 Zrotation Xrotation Yrotation
                JOINT rThumb2
                {
                  OFFSET -3.37035 -0.52449 3.41376
                  CHANNELS 3 Zrotation Xrotation Yrotation
                  End Site
                  {
                    OFFSET -1.78271 -1.18214 1.43049
                  }
                }
              }
              JOINT rIndex1
              {
                OFFSET -7.75947 0.938293 5.60832
                CHANNELS 3 Zrotation Xrotation Yrotation
                JOINT rIndex2
                {
                  OFFSET -2.54057 -0.884171 1.56538
                  CHANNELS 3 Zrotation Xrotation Yrotation
                  End Site
                  {
                    OFFSET -1.62519 -0.234802 1.16502
                  }
                }
              }
              JOINT rMid1
              {
                OFFSET -8.24714 1.18213 3.41376
                CHANNELS 3 Zrotation Xrotation Yrotation
                JOINT rMid2
                {
                  OFFSET -3.10165 -0.590103 1.0647
                  CHANNELS 3 Zrotation Xrotation Yrotation
                  End Site
                  {
                    OFFSET -2.48547 -0.328903 0.83742
                  }
                }
              }
              JOINT rRing1
              {
                OFFSET -8.82822 0.546677 1.51678
                CHANNELS 3 Zrotation Xrotation Yrotation
                JOINT rRing2
                {
                  OFFSET -2.60934 -0.819778 -0.0198488
                  CHANNELS 3 Zrotation Xrotation Yrotation
                  End Site
                  {
                    OFFSET -2.33842 -0.294052 0.168128
                  }
                }
              }
              JOINT rPinky1
              {
                OFFSET -8.27202 -0.0477905 -0.4584
                CHANNELS 3 Zrotation Xrotation Yrotation
                JOINT rPinky2
                {
                  OFFSET -1.82734 -0.647385 -0.700984
                  CHANNELS 3 Zrotation Xrotation Yrotation
                  End Site
                  {
                    OFFSET -1.69225 -0.51767 -0.607171
                  }
                }
              }
            }
          }
        }
      }
      JOINT lCollar
      {
        OFFSET 2.68224 19.2634 -4.8768
        CHANNELS 3 Zrotation Xrotation Yrotation
        JOINT lShldr
        {
          OFFSET 8.77824 -1.95073 1.46304
          CHANNELS 3 Zrotation Xrotation Yrotation
          JOINT lForeArm
          {
            OFFSET 28.1742 -1.7115 0.48768
            CHANNELS 3 Zrotation Xrotation Yrotation
            JOINT lHand
            {
              OFFSET 22.5879 0.773209 7.07136
              CHANNELS 3 Zrotation Xrotation Yrotation
              JOINT lThumb1
              {
                OFFSET 1.2192 -0.487915 3.41376
                CHANNELS 3 Zrotation Xrotation Yrotation
                JOINT lThumb2
                {
                  OFFSET 3.37035 -0.52449 3.41376
                  CHANNELS 3 Zrotation Xrotation Yrotation
                  End Site
                  {
                    OFFSET 1.78271 -1.18214 1.43049
                  }
                }
              }
              JOINT lIndex1
              {
                OFFSET 7.75947 0.938293 5.60832
                CHANNELS 3 Zrotation Xrotation Yrotation
                JOINT lIndex2
                {
                  OFFSET 2.54057 -0.884171 1.56538
                  CHANNELS 3 Zrotation Xrotation Yrotation
                  End Site
                  {
                    OFFSET 1.62519 -0.234802 1.16502
                  }
                }
              }
              JOINT lMid1
              {
                OFFSET 8.24714 1.18213 3.41376
                CHANNELS 3 Zrotation Xrotation Yrotation
                JOINT lMid2
                {
                  OFFSET 3.10165 -0.590103 1.0647
                  CHANNELS 3 Zrotation Xrotation Yrotation
                  End Site
                  {
                    OFFSET 2.48547 -0.328903 0.83742
                  }
                }
              }
              JOINT lRing1
              {
                OFFSET 8.82822 0.546677 1.51678
                CHANNELS 3 Zrotation Xrotation Yrotation
                JOINT lRing2
                {
                  OFFSET 2.60934 -0.819778 -0.0198488
                  CHANNELS 3 Zrotation Xrotation Yrotation
                  End Site
                  {
                    OFFSET 2.33842 -0.294052 0.168128
                  }
                }
              }
              JOINT lPinky1
              {
                OFFSET 8.27202 -0.0477905 -0.4584
                CHANNELS 3 Zrotation Xrotation Yrotation
                JOINT lPinky2
                {
                  OFFSET 1.82734 -0.647385 -0.700984
                  CHANNELS 3 Zrotation Xrotation Yrotation
                  End Site
                  {
                    OFFSET 1.69225 -0.51767 -0.607171
                  }
                }
              }
            }
          }
        }
      }
    }
  }
  JOINT rButtock
  {
    OFFSET -8.77824 4.35084 1.2192
    CHANNELS 3 Zrotation Xrotation Yrotation
    JOINT rThigh
    {
      OFFSET 0 -1.70687 -2.19456
      CHANNELS 3 Zrotation Xrotation Yrotation
      JOINT rShin
      {
        OFFSET 0 -36.8199 0.73152
        CHANNELS 3 Zrotation Xrotation Yrotation
        JOINT rFoot
        {
          OFFSET 0.73152 -45.1104 -5.12064
          CHANNELS 3 Zrotation Xrotation Yrotation
          End Site
          {
            OFFSET -1.1221 -3.69964 12.103
          }
        }
      }
    }
  }
  JOINT lButtock
  {
    OFFSET 8.77824 4.35084 1.2192
    CHANNELS 3 Zrotation Xrotation Yrotation
    JOINT lThigh
    {
      OFFSET 0 -1.70687 -2.19456
      CHANNELS 3 Zrotation Xrotation Yrotation
      JOINT lShin
      {
        OFFSET 0 -36.8199 0.73152
        CHANNELS 3 Zrotation Xrotation Yrotation
        JOINT lFoot
        {
          OFFSET -0.73152 -45.1104 -5.12064
          CHANNELS 3 Zrotation Xrotation Yrotation
          End Site
          {
            OFFSET 1.1221 -3.69964 12.103
          }
        }
      }
    }
  }
}
MOTION
Frames:	4
Frame Time:	0.00833333
-132.008 85.2982 0.0367349 0.0 0.0 0.0 0.984357 -0.00436093 0.0272514 0.271545 -0.00455345 0.0470446 4.37423e-14 -1.59028e-15 2.48481e-17 1.31698e-13 -6.36111e-15 5.12492e-17 -0.0 0.0 0.0 -0.0 0.0 0.0 2.20146e-14 -2.71776e-17 2.48481e-16 4.63288e-13 -5.65294e-16 2.5842e-15 7.95129e-12 -2.39257e-12 -6.99722e-14 9.0917e-11 2.28553e-12 1.65389e-13 2.14471e-10 -2.31575e-13 2.13097e-13 3.70375e-10 -4.0393e-13 3.55427e-13 2.14481e-10 -2.28205e-13 2.03556e-13 7.73091 5.47488 0.417314 2.14472e-10 -2.31286e-13 2.19458e-13 2.90554 0.965183 0.102902 2.14488e-10 -2.3069e-13 2.17868e-13 10.2786 0.731801 0.0259123 2.14469e-10 -2.31783e-13 2.29e-13 2.22167 -0.733487 -0.20892 2.19182e-14 -2.48481e-17 -2.48481e-16 4.59741e-13 -8.57259e-16 1.19271e-15 7.9405e-12 2.36017e-12 -7.63333e-14 9.09382e-11 -2.48195e-12 2.03556e-13 2.14498e-10 -2.60484e-13 2.22639e-13 3.70431e-10 -4.48458e-13 3.69739e-13 2.14491e-10 -2.56035e-13 2.35361e-13 -7.73091 5.47488 -0.417314 2.14496e-10 -2.59712e-13 2.19458e-13 -2.90554 0.965183 -0.102902 2.14485e-10 -2.59315e-13 2.18663e-13 -10.2786 0.731801 -0.0259123 2.14501e-10 -2.61998e-13 2.03556e-13 -2.22167 -0.733487 0.20892 -2.03217e-16 0.0 -3.88251e-19 1.24881 -5.45298 -0.109163 6.93424e-05 4.32234 0.0238812 -0.510656 1.12951 0.0812323 2.03217e-16 0.0 3.88251e-19 0.249652 -1.91924 0.0129235 0.00928378 -2.07855 0.0766855 0.496273 3.99654 -0.137948
-125.855 83.8637 -8.75753 173.694 81.7884 177.948 -0.331717 -2.04991 -1.4848 1.03118 2.46772 -0.414359 -1.46675 -2.11817 -0.617159 1.20008 1.8067 -0.580557 -0.0 0.0 0.0 -0.0 0.0 0.0 9.97277e-15 -4.78833e-13 -4.56424e-14 22.25 6.48116 2.48875 -3.06432 -1.22137 4.95612 0.0201038 -3.22643 -0.451031 4.40569e-10 -1.30772e-11 -8.58395e-10 7.65762e-10 -2.3507e-11 -1.48079e-09 4.40575e-10 -1.30741e-11 -8.58404e-10 7.73091 5.47488 0.417314 4.40568e-10 -1.3076e-11 -8.5839e-10 2.90554 0.965183 0.102902 4.4058e-10 -1.30757e-11 -8.58393e-10 10.2786 0.731801 0.0259123 4.40565e-10 -1.30757e-11 -8.58383e-10 2.22167 -0.733487 -0.20892 9.89858e-15 -4.78831e-13 -4.60284e-14 -22.7111 10.6503 -1.33163 4.27365 -1.94436 -6.68084 -0.00366097 -1.45738 0.204624 1.72994e-10 -3.15368e-10 5.8559e-10 2.99461e-10 -5.45652e-10 1.0121e-09 1.72989e-10 -3.15365e-10 5.85601e-10 -7.73091 5.47488 -0.417314 1.72994e-10 -3.15369e-10 5.85584e-10 -2.90554 0.965183 -0.102902 1.72983e-10 -3.15368e-10 5.85586e-10 -10.2786 0.731801 -0.0259123 1.72996e-10 -3.15369e-10 5.85574e-10 -2.22167 -0.733487 0.20892 -2.03217e-16 0.0 -3.88251e-19 -0.613331 -6.84255 -0.0835432 0.0356222 9.88829 0.172475 -1.40922 -5.34624 -6.48891 2.03217e-16 0.0 3.88251e-19 1.07832 -4.07732 -1.42867 -0.0235187 4.68872 -0.0948051 0.978638 -2.2083 4.20719
-125.944 83.8841 -8.92586 171.98 81.6257 176.059 -1.84171 -4.24202 -3.11651 1.88854 5.10986 -0.913581 -3.07043 -4.35527 -1.27523 2.50937 3.72004 -1.20049 -0.0 0.0 0.0 -0.0 0.0 0.0 -2.25496e-15 -9.42114e-13 -9.38667e-14 45.1362 13.1805 5.24038 -6.06118 -2.47387 10.1808 -0.0152251 -6.71923 -0.944341 6.85739e-10 -4.32591e-11 -1.84032e-09 1.19463e-09 -7.66963e-11 -3.17476e-09 6.85742e-10 -4.32562e-11 -1.84033e-09 7.73091 5.47488 0.417314 6.85738e-10 -4.32568e-11 -1.84032e-09 2.90554 0.965183 0.102902 6.85745e-10 -4.32568e-11 -1.84032e-09 10.2786 0.731801 0.0259123 6.85734e-10 -4.32556e-11 -1.84031e-09 2.22167 -0.733487 -0.20892 -2.30481e-15 -9.42113e-13 -9.41339e-14 -46.1523 21.9674 -2.82828 8.37107 -3.95562 -13.886 0.00435132 -3.06345 0.43061 9.2465e-11 -6.64062e-10 1.26346e-09 1.61191e-10 -1.14896e-09 2.18373e-09 9.24607e-11 -6.64062e-10 1.26347e-09 -7.73091 5.47488 -0.417314 9.24665e-11 -6.64066e-10 1.26345e-09 -2.90554 0.965183 -0.102902 9.24571e-11 -6.64063e-10 1.26345e-09 -10.2786 0.731801 -0.0259123 9.24663e-11 -6.64063e-10 1.26345e-09 -2.22167 -0.733487 0.20892 -2.03217e-16 0.0 -3.88251e-19 -2.54901 -8.29903 -0.00826287 0.0410295 15.7692 0.33807 -4.01968 -11.9696 -13.746 2.03217e-16 0.0 3.88251e-19 1.85665 -6.36063 -2.96515 -0.0133714 11.8498 -0.281204 2.5079 -8.68439 8.85337
-126.032 83.9057 -9.09121 170.349 81.4644 174.252 -3.28896 -6.12402 -4.53195 2.67074 7.41044 -1.34727 -4.53783 -6.35157 -1.86164 3.71048 5.41787 -1.74862 -0.0 0.0 0.0 -0.0 0.0 0.0 -1.4111e-14 -1.43644e-12 -1.37424e-13 64.9809 19.2923 7.86258 -8.56593 -3.55462 14.8943 -0.0939361 -9.67687 -1.37045 8.92764e-10 -3.87686e-11 -2.57561e-09 1.55654e-09 -6.97132e-11 -4.44308e-09 8.92763e-10 -3.87659e-11 -2.57562e-09 7.73091 5.47488 0.417314 8.92761e-10 -3.87655e-11 -2.57561e-09 2.90554 0.965183 0.102902 8.92764e-10 -3.87658e-11 -2.57561e-09 10.2786 0.731801 0.0259123 8.92758e-10 -3.87634e-11 -2.57561e-09 2.22167 -0.733487 -0.20892 -1.41407e-14 -1.43644e-12 -1.37588e-13 -66.4258 31.8755 -4.62467 11.4862 -5.51653 -20.1282 0.0203231 -4.37192 0.615465 8.99864e-11 -9.45583e-10 1.75632e-09 1.57522e-10 -1.63606e-09 3.03557e-09 8.9983e-11 -9.45584e-10 1.75633e-09 -7.73091 5.47488 -0.417314 8.99894e-11 -9.45588e-10 1.75631e-09 -2.90554 0.965183 -0.102902 8.99809e-11 -9.45585e-10 1.75632e-09 -10.2786 0.731801 -0.0259123 8.99869e-11 -9.45584e-10 1.75632e-09 -2.22167 -0.733487 0.20892 -2.03217e-16 0.0 -3.88251e-19 -4.33383 -9.6217 -0.0319563 0.0144113 21.0196 0.495053 -7.73823 -17.3058 -20.5115 2.03217e-16 0.0 3.88251e-19 2.40705 -8.37347 -4.34742 0.0369758 18.2227 -0.459794 4.80885 -14.2593 13.3045
